<?xml version="1.0" encoding="UTF-8" standalone="no"?>
<!-- Created with Inkscape (http://www.inkscape.org/) -->

<svg
   width="140.97878mm"
   height="172.67534mm"
   viewBox="0 0 151.85493 185.99681"
   version="1.1"
   id="svg1"
   xmlns="http://www.w3.org/2000/svg"
   xmlns:svg="http://www.w3.org/2000/svg">
  <defs
     id="defs1">
    <rect
       x="-47.85553"
       y="493.00226"
       width="162.07675"
       height="74.040634"
       id="rect25" />
  </defs>
  <g
     id="layer1"
     transform="translate(-36.368119,-60.460999)">
    <g
       id="g2"
       transform="matrix(0.55052618,0,0,0.55052618,10.696533,52.469454)">
      <g
         id="svg-hand_1_"
         transform="translate(-6.789,-348.774)">
    <g
   id="svg-hand">
      <path
   fill="#c0c0c0"
   d="m 324.867,330.098 c 2.863,-2.897 4.389,-5.938 4.389,-9.072 0,-19.946 -61.748,-36.116 -137.918,-36.116 -76.17,0 -137.918,16.168 -137.918,36.115 0,3.133 1.524,6.174 4.389,9.07 15.366,-15.556 69.323,-27.046 133.529,-27.046 64.207,0.002 118.164,11.492 133.529,27.049 z"
   id="path2"
   transform="translate(0,344)" />
<path
   fill="#333333"
   d="m 324.867,330.098 c -15.365,-15.557 -69.322,-27.047 -133.529,-27.047 -64.206,0 -118.163,11.49 -133.529,27.047 15.366,15.557 69.323,27.045 133.529,27.045 64.207,0 118.164,-11.491 133.529,-27.045 z"
   id="path3"
   transform="translate(0,344)" />
<path
   fill="#f6af74"
   stroke="#f6b075"
   stroke-width="2"
   stroke-miterlimit="10"
   d="m 224.002,639.541 c -0.989,-4.156 -2.063,-8.734 -3.207,-13.664 -0.425,-1.831 -0.858,-3.705 -1.302,-5.631 -0.957,1.461 -2.423,3.426 -4.395,5.339 -3.47,3.367 -8.512,6.571 -15.142,6.571 -0.448,0 -0.903,-0.014 -1.364,-0.043 -5.405,-0.354 -11.179,-1.168 -17.174,-2.422 -0.208,6.727 -0.282,15.629 0.449,21.48 0.872,6.979 3.285,39.989 3.925,48.082 2.282,0.029 4.577,0.046 6.888,0.046 14.876,0 31.888,-0.616 45.312,-1.758 -2.756,-9.912 -11.136,-46.014 -13.99,-58 z"
   id="path4" />

      <path
   fill="#eea36c"
   d="m 225.31,639.23 c -0.963,-4.043 -2.007,-8.49 -3.116,-13.271 -0.551,-2.371 -1.115,-4.821 -1.697,-7.353 l 0.002,-0.004 -0.06,-0.258 c -2.471,-10.757 -4.307,-18.978 -4.307,-18.979 l -0.202,-0.904 -35.377,20.811 -0.023,0.356 c -0.002,0.039 -0.253,3.972 -0.429,9.216 l -0.019,0.562 0.004,0.001 c -0.216,6.8 -0.3,15.92 0.451,21.93 0.863,6.921 3.27,39.81 3.907,47.896 0.227,0.004 0.45,0.009 0.677,0.012 0.225,0.003 0.448,0.006 0.674,0.009 -0.64,-8.094 -3.053,-41.103 -3.925,-48.082 -0.73,-5.853 -0.657,-14.755 -0.448,-21.479 0.54,0.113 1.066,0.203 1.603,0.309 0.89,0.175 1.78,0.355 2.658,0.512 0.566,0.102 1.121,0.182 1.684,0.273 0.929,0.152 1.859,0.311 2.774,0.439 0.448,0.062 0.883,0.107 1.328,0.166 1.007,0.131 2.017,0.267 3.005,0.369 0.035,0.004 0.068,0.006 0.104,0.01 1.357,0.141 2.701,0.26 4.019,0.346 0.46,0.029 0.915,0.045 1.363,0.045 0.001,0 0,0 0.001,0 0.819,0 1.611,-0.055 2.383,-0.146 0.036,-0.004 0.071,-0.01 0.107,-0.015 0.341,-0.043 0.677,-0.093 1.008,-0.151 0.057,-0.011 0.111,-0.021 0.169,-0.031 0.312,-0.06 0.618,-0.123 0.921,-0.195 0.061,-0.014 0.119,-0.028 0.179,-0.043 0.304,-0.075 0.604,-0.156 0.897,-0.244 0.049,-0.016 0.098,-0.027 0.146,-0.043 0.315,-0.098 0.627,-0.2 0.934,-0.311 0.021,-0.008 0.045,-0.017 0.066,-0.023 6.483,-2.363 10.721,-7.646 12.727,-10.71 0.442,1.924 0.877,3.798 1.302,5.629 1.144,4.931 2.219,9.509 3.207,13.664 2.854,11.985 11.232,48.089 13.99,58.001 0.227,-0.02 0.454,-0.039 0.681,-0.057 0.228,-0.021 0.454,-0.041 0.683,-0.062 -2.756,-9.885 -11.179,-46.131 -14.051,-58.195 z"
   id="path5" />

      <path
   fill="#ba5b3c"
   d="m 191.569,372.173 c -0.236,-5.108 -4.036,-9.083 -8.484,-8.875 l -5.034,0.233 c -4.448,0.209 -7.861,4.519 -7.623,9.628 l 0.486,10.153 21.119,-1.482 z"
   id="path6" />

      <polygon
   fill="#ffffff"
   points="170.911,383.312 69.614,390.432 75.595,500.578 176.198,493.645 197.32,492.189 302.378,484.949 292.153,374.793 192.031,381.83 "
   id="polygon6"
   style="fill:#f8f3f1;fill-opacity:1" />

      <path
   fill="#f6af74"
   d="m 221.744,563.232 c -2.017,-6.271 -6.721,-18.145 -11.199,-24.64 -4.48,-6.495 -6.72,-25.086 -10.545,-29.343 -0.626,-0.695 -1.279,-1.161 -1.934,-1.458 l 1.834,38.283 4.817,-0.144 c 4.451,-0.131 8.164,3.287 8.293,7.633 l 0.084,2.842 c 0.128,4.348 -3.376,7.978 -7.827,8.109 l -4.478,0.131 0.042,0.875 9.457,-0.278 c 4.905,-0.146 8.999,3.593 9.14,8.35 l 0.092,3.109 c 0.142,4.758 -3.724,8.729 -8.631,8.875 l -9.084,0.271 0.053,1.092 4.416,-0.131 c 4.26,-0.127 7.815,3.297 7.943,7.644 l 0.084,2.841 c 0.129,4.348 -3.22,7.973 -7.479,8.1 l -4.074,0.121 0.041,0.875 1.812,-0.055 c 3.77,-0.111 6.897,2.328 6.989,5.447 l 0.061,2.039 c 0.093,3.119 -2.888,5.74 -6.654,5.851 l -1.568,0.046 -21.161,0.625 -11.761,0.35 c -0.796,0.022 -1.562,-0.073 -2.277,-0.26 0,0 5.94,1.797 14.196,3.197 3.627,0.615 7.698,1.154 11.913,1.43 3.458,0.228 6.55,-0.447 9.266,-1.662 8.132,-3.639 12.881,-12.129 13.906,-15.838 1.367,-4.951 -0.695,-9.387 -0.695,-9.387 0,0 3.136,-11.646 4.928,-17.246 1.792,-5.6 2.016,-11.423 0,-17.694 z"
   id="path7" />

      <path
   fill="#eea36c"
   d="m 222.384,563.025 c -2.045,-6.361 -6.737,-18.219 -11.286,-24.814 -2.186,-3.169 -3.844,-9.385 -5.447,-15.396 -1.613,-6.055 -3.141,-11.775 -5.149,-14.012 -0.743,-0.826 -1.57,-1.408 -2.469,-1.75 l 0.035,0.74 0.037,0.777 c 0.494,0.273 0.962,0.646 1.396,1.13 1.794,1.997 3.349,7.825 4.852,13.46 1.634,6.121 3.321,12.453 5.641,15.812 4.435,6.43 9.17,18.418 11.112,24.463 1.864,5.803 1.864,11.457 0,17.285 -1.776,5.551 -4.904,17.159 -4.938,17.276 l -0.062,0.235 0.103,0.222 c 0.02,0.042 1.938,4.284 0.658,8.924 -1.302,4.703 -9.116,17.882 -22.48,17.009 -9.426,-0.615 -18.22,-2.576 -22.754,-3.73 l -1.122,0.033 c -0.796,0.022 -1.561,-0.072 -2.277,-0.26 -0.22,-0.058 -0.434,-0.128 -0.644,-0.201 l -0.146,0.664 0.596,0.18 c 0.123,0.039 12.531,3.758 26.26,4.656 0.462,0.029 0.915,0.045 1.364,0.045 13.363,0 21.169,-13.223 22.499,-18.037 1.254,-4.539 -0.218,-8.608 -0.634,-9.616 0.446,-1.649 3.229,-11.897 4.857,-16.991 1.951,-6.104 1.951,-12.025 -0.002,-18.104 z"
   id="path8" />

      <polygon
   fill="#ba5b3c"
   points="198.105,508.57 198.068,507.793 198.031,507.053 197.32,492.189 176.198,493.645 178.74,546.7 183.574,546.559 184.263,546.537 184.95,546.518 199.902,546.076 "
   id="polygon8" />

      <path
   fill="#f6af74"
   d="m 175.586,586.623 0.691,-0.021 17.121,-0.506 8.407,-0.248 9.084,-0.268 c 4.907,-0.145 8.771,-4.118 8.631,-8.875 l -0.092,-3.109 c -0.141,-4.758 -4.233,-8.496 -9.14,-8.352 l -29.557,0.875 -0.69,0.02 -0.37,0.012 -0.322,0.011 -9.469,0.278 -0.025,-0.875 9.688,-0.285 0.089,-0.004 0.604,-0.018 0.691,-0.02 19.865,-0.588 4.478,-0.133 c 4.451,-0.131 7.956,-3.763 7.826,-8.107 l -0.084,-2.842 c -0.128,-4.348 -3.841,-7.764 -8.292,-7.633 l -4.817,0.143 -14.95,0.441 -0.688,0.02 -0.688,0.021 -4.833,0.143 -14.771,0.436 c -4.452,0.131 -7.956,3.764 -7.827,8.109 l 0.084,2.842 c 0.119,4.031 3.323,7.258 7.339,7.602 l 0.033,1.105 c -4.032,0.918 -6.982,4.482 -6.859,8.648 l 0.093,3.111 c 0.122,4.166 3.316,8.862 7.396,9.541 l 0.019,0.604 c -2.696,1.291 -4.527,4.125 -4.434,7.357 l 0.084,2.842 c 0.129,4.348 3.686,7.77 7.943,7.645 l 0.965,-0.029 0.029,0.979 c -3.142,0.59 -5.459,2.952 -5.377,5.709 l 0.06,2.039 c 0.067,2.258 1.729,4.151 4.068,4.985 0.209,0.074 0.423,0.146 0.644,0.203 0.717,0.187 1.48,0.282 2.277,0.26 l 1.121,-0.032 33.368,-0.987 c 3.768,-0.109 6.748,-2.73 6.655,-5.852 l -0.061,-2.039 c -0.093,-3.118 -3.222,-5.559 -6.989,-5.446 l -29.223,0.862 -0.026,-0.875 31.471,-0.93 c 4.259,-0.125 7.605,-3.752 7.478,-8.1 l -0.084,-2.841 c -0.127,-4.347 -3.684,-7.769 -7.942,-7.644 l -30.236,0.893 -0.692,0.021 -0.692,0.021 -4.14,0.122 -0.032,-1.092 4.411,-0.131 z"
   id="path9" />

      <path
   fill="#eea36c"
   d="m 170.26,621.367 c -4.056,0 -7.312,-2.682 -7.413,-6.104 l -0.06,-2.039 c -0.078,-2.625 1.768,-4.986 4.54,-6.009 -4.433,-0.151 -7.966,-3.739 -8.101,-8.295 l -0.084,-2.842 c -0.091,-3.093 1.461,-5.964 4.016,-7.546 -4.087,-1.262 -6.88,-5.963 -6.997,-9.957 l -0.094,-3.11 c -0.124,-4.213 2.718,-7.985 6.827,-9.18 -4.104,-0.638 -7.218,-4.054 -7.339,-8.179 l -0.084,-2.842 c -0.14,-4.711 3.664,-8.658 8.479,-8.801 l 40.748,-1.203 c 4.875,-0.15 8.844,3.549 8.983,8.285 l 0.084,2.842 c 0.067,2.283 -0.779,4.457 -2.385,6.121 -0.92,0.953 -2.026,1.672 -3.242,2.125 l 2.13,-0.064 c 5.335,-0.146 9.68,3.857 9.831,9.004 l 0.092,3.109 c 0.073,2.482 -0.854,4.848 -2.611,6.654 -1.753,1.803 -4.122,2.836 -6.671,2.912 l -2.606,0.076 c 3.698,0.812 6.468,4.082 6.587,8.105 l 0.084,2.842 c 0.068,2.279 -0.739,4.447 -2.271,6.106 -1.409,1.524 -3.276,2.453 -5.307,2.647 2.795,0.85 4.789,3.064 4.868,5.73 l 0.062,2.039 c 0.05,1.713 -0.699,3.338 -2.109,4.578 -1.374,1.208 -3.221,1.906 -5.199,1.964 l -34.49,1.021 c -0.09,0.009 -0.178,0.011 -0.268,0.011 z m -0.801,-15.543 0.064,2.226 -0.563,0.104 c -2.869,0.539 -4.899,2.654 -4.83,5.029 l 0.061,2.039 c 0.081,2.754 2.873,4.918 6.297,4.797 l 34.491,-1.021 c 1.665,-0.049 3.211,-0.629 4.353,-1.631 1.104,-0.97 1.69,-2.224 1.651,-3.529 l -0.061,-2.038 c -0.079,-2.691 -2.746,-4.8 -6.07,-4.8 l -0.228,0.004 -29.896,0.884 -0.064,-2.22 32.141,-0.948 c 1.877,-0.056 3.622,-0.854 4.91,-2.252 1.293,-1.398 1.974,-3.23 1.916,-5.156 l -0.084,-2.842 c -0.115,-3.923 -3.209,-6.994 -7.044,-6.994 l -0.207,0.004 -36.434,1.076 -0.071,-2.437 41.08,-1.216 c 2.197,-0.063 4.238,-0.952 5.747,-2.504 1.501,-1.545 2.294,-3.562 2.23,-5.68 l -0.092,-3.109 c -0.13,-4.4 -3.847,-7.832 -8.447,-7.696 l -41.081,1.213 -0.064,-2.217 36.084,-1.067 c 1.977,-0.058 3.812,-0.863 5.167,-2.269 1.352,-1.4 2.063,-3.229 2.008,-5.147 l -0.084,-2.843 c -0.117,-3.989 -3.464,-7.125 -7.603,-6.979 l -40.747,1.203 c -4.073,0.121 -7.293,3.447 -7.176,7.418 l 0.084,2.842 c 0.107,3.645 2.999,6.633 6.727,6.951 l 0.597,0.051 0.067,2.258 -0.539,0.123 c -3.783,0.859 -6.448,4.215 -6.338,7.975 l 0.093,3.109 c 0.107,3.689 2.941,8.252 6.835,8.898 l 0.545,0.09 0.046,1.595 -0.394,0.188 c -2.545,1.217 -4.136,3.859 -4.052,6.731 l 0.084,2.842 c 0.116,3.923 3.211,6.994 7.046,6.994 z"
   id="path10" />

      
      
      <polygon
   display="none"
   fill="#ba5b3c"
   points="181.589,606.139 202.749,605.514 201.86,586.939 180.699,587.564 "
   id="polygon21" />

      <path
   fill="none"
   d="m 204.719,545.934 c 4.451,-0.131 8.164,3.287 8.293,7.633 l 0.084,2.843 c 0.128,4.347 -3.376,7.978 -7.827,8.108 l -4.478,0.131 -19.865,0.588 -0.191,0.882 29.557,-0.873 c 4.905,-0.146 8.999,3.593 9.14,8.351 l 0.092,3.108 c 0.142,4.758 -3.724,8.729 -8.631,8.875 l -9.084,0.269 -8.407,0.248 -17.121,0.508 -0.238,1.1 30.237,-0.893 c 4.259,-0.127 7.814,3.297 7.942,7.643 l 0.084,2.842 c 0.129,4.348 -3.22,7.973 -7.479,8.1 l -31.47,0.931 0.025,0.875 29.224,-0.863 c 3.769,-0.11 6.896,2.328 6.989,5.447 l 0.06,2.038 c 0.094,3.119 -2.888,5.74 -6.654,5.852 l -33.368,0.986 c 4.535,1.152 13.328,3.113 22.754,3.73 13.364,0.873 21.181,-12.305 22.48,-17.01 1.28,-4.639 -0.639,-8.881 -0.658,-8.923 l -0.103,-0.222 0.062,-0.236 c 0.032,-0.117 3.16,-11.727 4.938,-17.277 1.864,-5.828 1.864,-11.482 0,-17.283 -1.942,-6.047 -6.679,-18.033 -11.112,-24.463 -2.317,-3.361 -4.007,-9.69 -5.641,-15.812 -1.502,-5.637 -3.058,-11.465 -4.853,-13.46 -0.435,-0.483 -0.901,-0.856 -1.396,-1.13 l 1.797,37.505 z"
   id="path22" />

      <polygon
   fill="#eea36c"
   points="180.926,565.236 180.235,565.258 179.631,565.275 179.541,565.277 179.35,566.158 179.673,566.148 180.042,566.139 180.735,566.117 "
   id="polygon22" />

      <polygon
   fill="none"
   points="179.35,566.158 179.541,565.277 169.856,565.564 169.882,566.438 "
   id="polygon23" />

      <polygon
   fill="#eea36c"
   points="175.586,586.623 174.894,586.643 174.655,587.743 175.347,587.723 176.038,587.702 176.278,586.602 "
   id="polygon24" />

      <path
   fill="#ba5b3c"
   d="m 203.827,627.995 -0.031,-0.651 h 0.009 l -0.333,-6.947 -21.16,0.617 0.125,2.617 c -0.003,-10e-4 -0.006,-0.002 -0.009,-0.002 l 0.257,5.352 c 0.237,5.111 4.037,9.084 8.485,8.877 l 5.034,-0.234 c 4.449,-0.21 7.862,-4.52 7.623,-9.629 z"
   id="path24" />

    <text
   xml:space="preserve"
   style="text-align:start;writing-mode:lr-tb;direction:ltr;text-anchor:start;fill:#000080;stroke-width:0.677"
   x="27.088036"
   y="502.93454"
   id="text24"><tspan
     id="tspan24"
     x="27.088036"
     y="502.93454" /></text>
<text
   xml:space="preserve"
   id="text25"
   style="font-size:64px;text-align:start;writing-mode:lr-tb;direction:ltr;white-space:pre;shape-inside:url(#rect25);fill:#333333;stroke-width:0.677"
   transform="rotate(-4,-1439.1713,-1725.4368)"><tspan
     x="-47.855469"
     y="551.39109"
     id="tspan4"><tspan
       style="font-family:Baskerville;-inkscape-font-specification:Baskerville"
       id="tspan2">Oops!</tspan></tspan></text>
<text
   xml:space="preserve"
   style="font-style:normal;font-variant:normal;font-weight:normal;font-stretch:normal;font-size:14px;font-family:'Myanmar MN';-inkscape-font-specification:'Myanmar MN';text-align:start;writing-mode:lr-tb;direction:ltr;text-anchor:start;fill:#808080;stroke-width:0.677"
   x="87.010841"
   y="490.88348"
   id="text26"
   transform="rotate(-3.9613738)"><tspan
     id="tspan26"
     x="87.010841"
     y="490.88348"
     style="font-style:normal;font-variant:normal;font-weight:normal;font-stretch:normal;font-size:14px;font-family:'Myanmar MN';-inkscape-font-specification:'Myanmar MN'">Nothing to see here...</tspan></text>
</g>

  </g>
    </g>
  </g>
</svg>
