<svg xmlns="http://www.w3.org/2000/svg" width="800" height="600" viewBox="0 0 800 600"><rect width="100%" height="100%" fill="#13151a"/><path fill="#a1a1a1" d="M181.495 252.835v64.97h34.17v11.81h-49.57v-76.78h15.4Zm39.39 48.83v-1.11q0-12.76 7.12-20.91 7.12-8.14 19.73-8.14 12.65 0 19.82 8.12 7.18 8.12 7.18 20.93v1.11q0 12.87-7.15 20.96-7.14 8.1-19.75 8.1-12.65 0-19.8-8.1-7.15-8.09-7.15-20.96Zm15.35-1.11v1.11q0 7.81 2.74 12.53 2.74 4.71 8.86 4.71 5.96 0 8.73-4.74 2.77-4.75 2.77-12.5v-1.11q0-7.59-2.8-12.39-2.79-4.8-8.8-4.8-5.96 0-8.73 4.83-2.77 4.82-2.77 12.36Zm96.87 29.06h-15.39q-.85-1.95-1.46-4.11-.6-2.17-.87-4.43-2.37 4.16-6.24 6.91-3.88 2.74-9.26 2.74-8.96 0-13.82-4.62-4.85-4.61-4.85-12.57 0-8.39 6.46-13 6.46-4.62 18.86-4.62h8.59v-4.53q0-4.12-2.16-6.38-2.16-2.27-6.38-2.27-3.75 0-5.78 1.82-2.03 1.82-2.03 5.03l-14.87-.05-.05-.31q-.37-7.23 6.28-12.48 6.64-5.24 17.45-5.24 10.23 0 16.61 5.19 6.38 5.2 6.38 14.79v23.58q0 4 .61 7.54.61 3.53 1.92 7.01Zm-29.47-10.28q4.06 0 7.22-2.01 3.16-2 4.27-4.64v-8.07h-8.59q-4.91 0-7.44 2.46-2.53 2.45-2.53 5.93 0 2.85 1.9 4.59 1.9 1.74 5.17 1.74Zm36.22-16.67v-1.1q0-13.5 5.83-21.78 5.83-8.28 16.43-8.28 4.27 0 7.7 1.84 3.42 1.85 6.01 5.28v-31.28h15.45v82.27h-13.24l-1.26-6.96q-2.69 3.95-6.36 6.01-3.66 2.06-8.41 2.06-10.49 0-16.32-7.7t-5.83-20.36Zm15.35-1.1v1.1q0 7.49 2.53 11.79 2.53 4.3 8.23 4.3 3.32 0 5.8-1.35 2.48-1.34 4.06-3.93v-24.31q-1.58-2.69-4.04-4.19-2.45-1.5-5.72-1.5-5.64 0-8.25 5.01-2.61 5.01-2.61 13.08Zm64.18-29.01v57.06h-15.4v-57.06h15.4Zm0-25.21v11.55h-15.4v-11.55h15.4Zm12.39 25.21h14.34l.69 8.18q2.85-4.38 7.01-6.81 4.17-2.42 9.34-2.42 8.65 0 13.5 5.43t4.85 17.03v35.65h-15.45v-35.6q0-5.74-2.32-8.14-2.32-2.4-7.02-2.4-3.06 0-5.48 1.24-2.43 1.24-4.06 3.5v41.4h-15.4v-57.06Zm58.85 30.11v-1.1q0-13.5 5.88-21.78 5.88-8.28 16.48-8.28 4.8 0 8.44 2.16 3.64 2.16 6.22 6.17l1.21-7.28h13.29v56.8q0 11.12-7.3 17.21-7.3 6.09-20.33 6.09-4.32 0-9.18-1.18-4.85-1.19-8.96-3.24l2.85-11.5q3.53 1.69 7.2 2.56 3.66.87 7.98.87 6.33 0 9.31-2.64 2.98-2.64 2.98-8.23v-5.16q-2.53 3.21-5.96 4.9-3.43 1.69-7.85 1.69-10.5 0-16.38-7.73-5.88-7.72-5.88-20.33Zm15.4-1.1v1.1q0 7.49 2.53 11.79 2.53 4.3 8.23 4.3 3.53 0 5.98-1.3 2.45-1.29 3.93-3.77v-24.78q-1.48-2.58-3.93-4.01-2.45-1.42-5.88-1.42-5.64 0-8.25 5.01-2.61 5.01-2.61 13.08Zm65.02 14.55v13.5h-15.4v-13.5h15.4Zm31.43 0v13.5h-15.4v-13.5h15.4Zm31.43 0v13.5h-15.4v-13.5h15.4Z"/></svg>